<svg xmlns="http://www.w3.org/2000/svg" xmlns:xlink="http://www.w3.org/1999/xlink" fill="none" version="1.1" width="12" height="11.00016975402832" viewBox="0 0 12 11.00016975402832"><g><path d="M1.50005,7.12638L1.50005,9.00145L3.37512,9.00145L8.9052,3.47137L7.03013,1.59631L1.50005,7.12638ZM10.355,2.02142C10.5498,1.82725,10.5502,1.51204,10.356,1.31743L10.355,1.31642L9.18494,0.14635C8.99077,-0.0483966,8.67556,-0.0488309,8.48095,0.145336L8.47994,0.14635L7.56499,1.0613L9.44006,2.93636L10.355,2.02142ZM0.49997,10.0002L11.5,10.0002C11.8333,10.0002,12,10.1669,12,10.5002C12,10.8335,11.8333,11.0002,11.5,11.0002L0.49997,11.0002C0.166657,11.0002,0,10.8335,0,10.5002C0,10.1669,0.166657,10.0002,0.49997,10.0002Z" fill="#7972FE" fill-opacity="1"/></g></svg>